<?xml version="1.0" standalone="no"?><!DOCTYPE svg PUBLIC "-//W3C//DTD SVG 1.1//EN" "http://www.w3.org/Graphics/SVG/1.1/DTD/svg11.dtd"><svg width="100%" height="100%" viewBox="0 0 1281 960" version="1.1" xmlns="http://www.w3.org/2000/svg" xmlns:xlink="http://www.w3.org/1999/xlink" xml:space="preserve" style="fill-rule:evenodd;clip-rule:evenodd;stroke-linejoin:round;stroke-miterlimit:1.41421;"><rect id="Image 4x3 Standard Monitor" x="0.696" y="0" width="1280" height="960" style="fill:#bfbfbf;"/><path d="M564.41,531.742l0,-35.162l-63.713,0l0,-16.53l67.019,-95.17l14.727,0l0,95.17l19.835,0l0,16.53l-19.835,0l0,35.162l-18.033,0ZM564.41,480.05l0,-66.218l-45.982,66.218l45.982,0Z" style="fill:#000;fill-rule:nonzero;"/><path d="M630.729,445.889l0,-20.536l20.536,0l0,20.536l-20.536,0ZM630.729,531.742l0,-20.536l20.536,0l0,20.536l-20.536,0Z" style="fill:#000;fill-rule:nonzero;"/><path d="M677.813,492.973l18.032,-2.404c2.07,10.218 5.593,17.581 10.569,22.089c4.975,4.508 11.036,6.762 18.182,6.762c8.482,0 15.645,-2.938 21.488,-8.815c5.844,-5.878 8.766,-13.157 8.766,-21.839c0,-8.282 -2.705,-15.111 -8.114,-20.487c-5.41,-5.376 -12.289,-8.064 -20.637,-8.064c-3.406,0 -7.647,0.668 -12.723,2.003l2.004,-15.828c1.202,0.134 2.17,0.2 2.905,0.2c7.68,0 14.593,-2.003 20.737,-6.01c6.144,-4.007 9.216,-10.185 9.216,-18.533c0,-6.612 -2.237,-12.089 -6.712,-16.43c-4.474,-4.341 -10.251,-6.511 -17.331,-6.511c-7.012,0 -12.856,2.204 -17.531,6.611c-4.675,4.408 -7.68,11.02 -9.016,19.836l-18.032,-3.206c2.204,-12.088 7.213,-21.455 15.027,-28.1c7.814,-6.645 17.531,-9.968 29.152,-9.968c8.014,0 15.394,1.72 22.139,5.159c6.746,3.44 11.905,8.132 15.478,14.076c3.573,5.944 5.359,12.255 5.359,18.933c0,6.345 -1.703,12.122 -5.109,17.331c-3.406,5.21 -8.448,9.35 -15.127,12.422c8.682,2.004 15.428,6.161 20.236,12.473c4.809,6.311 7.213,14.208 7.213,23.692c0,12.823 -4.675,23.692 -14.025,32.608c-9.35,8.916 -21.171,13.374 -35.463,13.374c-12.89,0 -23.592,-3.84 -32.107,-11.521c-8.516,-7.68 -13.374,-17.631 -14.576,-29.853Z" style="fill:#000;fill-rule:nonzero;"/></svg>