<?xml version="1.0" standalone="no"?><!DOCTYPE svg PUBLIC "-//W3C//DTD SVG 1.1//EN" "http://www.w3.org/Graphics/SVG/1.1/DTD/svg11.dtd"><svg width="100%" height="100%" viewBox="0 0 1280 720" version="1.1" xmlns="http://www.w3.org/2000/svg" xmlns:xlink="http://www.w3.org/1999/xlink" xml:space="preserve" style="fill-rule:evenodd;clip-rule:evenodd;stroke-linejoin:round;stroke-miterlimit:1.41421;"><rect id="Image 16x9 HD Video" x="0" y="0" width="1280" height="720" style="fill:#bfbfbf;"/><clipPath id="_clip1"><rect id="Image 16x9 HD Video1" x="0" y="0" width="1280" height="720"/></clipPath><g clip-path="url(#_clip1)"><g transform="matrix(17.0972,0,0,17.0972,2163.37,7287.26)"><path d="M-97.121,-402.144L-98.176,-402.144L-98.176,-408.864C-98.43,-408.622 -98.763,-408.38 -99.175,-408.138C-99.587,-407.896 -99.957,-407.714 -100.285,-407.593L-100.285,-408.612C-99.695,-408.89 -99.18,-409.226 -98.738,-409.62C-98.297,-410.015 -97.984,-410.398 -97.801,-410.769L-97.121,-410.769L-97.121,-402.144Z" style="fill:#000;fill-rule:nonzero;"/><path d="M-88.947,-408.63L-89.996,-408.548C-90.09,-408.962 -90.223,-409.263 -90.394,-409.45C-90.68,-409.751 -91.031,-409.902 -91.449,-409.902C-91.785,-409.902 -92.08,-409.808 -92.334,-409.62C-92.666,-409.378 -92.928,-409.025 -93.119,-408.56C-93.31,-408.095 -93.41,-407.433 -93.418,-406.573C-93.164,-406.96 -92.853,-407.247 -92.486,-407.435C-92.119,-407.622 -91.734,-407.716 -91.332,-407.716C-90.629,-407.716 -90.03,-407.457 -89.536,-406.94C-89.042,-406.422 -88.795,-405.753 -88.795,-404.933C-88.795,-404.394 -88.911,-403.893 -89.143,-403.43C-89.376,-402.967 -89.695,-402.612 -90.101,-402.366C-90.508,-402.12 -90.969,-401.997 -91.484,-401.997C-92.363,-401.997 -93.08,-402.32 -93.635,-402.967C-94.189,-403.613 -94.467,-404.679 -94.467,-406.163C-94.467,-407.823 -94.16,-409.03 -93.547,-409.784C-93.012,-410.441 -92.291,-410.769 -91.385,-410.769C-90.709,-410.769 -90.155,-410.579 -89.724,-410.2C-89.292,-409.821 -89.033,-409.298 -88.947,-408.63ZM-93.254,-404.927C-93.254,-404.564 -93.177,-404.216 -93.022,-403.884C-92.868,-403.552 -92.652,-403.299 -92.375,-403.125C-92.098,-402.951 -91.807,-402.864 -91.502,-402.864C-91.057,-402.864 -90.674,-403.044 -90.353,-403.403C-90.033,-403.763 -89.873,-404.251 -89.873,-404.868C-89.873,-405.462 -90.031,-405.93 -90.348,-406.272C-90.664,-406.613 -91.062,-406.784 -91.543,-406.784C-92.019,-406.784 -92.424,-406.613 -92.756,-406.272C-93.088,-405.93 -93.254,-405.482 -93.254,-404.927Z" style="fill:#000;fill-rule:nonzero;"/><path d="M-87.16,-407.165L-87.16,-408.366L-85.959,-408.366L-85.959,-407.165L-87.16,-407.165ZM-87.16,-402.144L-87.16,-403.345L-85.959,-403.345L-85.959,-402.144L-87.16,-402.144Z" style="fill:#000;fill-rule:nonzero;"/><path d="M-84.254,-404.13L-83.24,-404.224C-83.154,-403.747 -82.99,-403.402 -82.748,-403.187C-82.506,-402.972 -82.195,-402.864 -81.816,-402.864C-81.492,-402.864 -81.208,-402.939 -80.964,-403.087C-80.72,-403.236 -80.519,-403.434 -80.363,-403.682C-80.207,-403.93 -80.076,-404.265 -79.971,-404.687C-79.865,-405.109 -79.812,-405.538 -79.812,-405.976C-79.812,-406.023 -79.814,-406.093 -79.818,-406.187C-80.029,-405.851 -80.317,-405.578 -80.683,-405.369C-81.048,-405.16 -81.443,-405.056 -81.869,-405.056C-82.58,-405.056 -83.182,-405.314 -83.674,-405.829C-84.166,-406.345 -84.412,-407.025 -84.412,-407.868C-84.412,-408.739 -84.155,-409.441 -83.642,-409.972C-83.128,-410.503 -82.484,-410.769 -81.711,-410.769C-81.152,-410.769 -80.642,-410.618 -80.179,-410.318C-79.716,-410.017 -79.364,-409.588 -79.124,-409.031C-78.884,-408.475 -78.764,-407.669 -78.764,-406.614C-78.764,-405.517 -78.883,-404.643 -79.121,-403.992C-79.359,-403.342 -79.714,-402.847 -80.184,-402.507C-80.655,-402.167 -81.207,-401.997 -81.84,-401.997C-82.512,-401.997 -83.06,-402.184 -83.486,-402.557C-83.912,-402.93 -84.168,-403.454 -84.254,-404.13ZM-79.935,-407.921C-79.935,-408.527 -80.097,-409.007 -80.419,-409.362C-80.741,-409.718 -81.129,-409.896 -81.582,-409.896C-82.051,-409.896 -82.459,-409.704 -82.807,-409.321C-83.154,-408.939 -83.328,-408.443 -83.328,-407.833C-83.328,-407.286 -83.163,-406.842 -82.833,-406.5C-82.503,-406.158 -82.096,-405.987 -81.611,-405.987C-81.123,-405.987 -80.722,-406.158 -80.407,-406.5C-80.093,-406.842 -79.935,-407.316 -79.935,-407.921Z" style="fill:#000;fill-rule:nonzero;"/></g></g></svg>