<?xml version="1.0" standalone="no"?><!DOCTYPE svg PUBLIC "-//W3C//DTD SVG 1.1//EN" "http://www.w3.org/Graphics/SVG/1.1/DTD/svg11.dtd"><svg width="100%" height="100%" viewBox="0 0 1281 549" version="1.1" xmlns="http://www.w3.org/2000/svg" xmlns:xlink="http://www.w3.org/1999/xlink" xml:space="preserve" style="fill-rule:evenodd;clip-rule:evenodd;stroke-linejoin:round;stroke-miterlimit:1.41421;"><g transform="matrix(1,0,0,1,-1331,-1080)"><g id="Image 21x9 Cinamascope" transform="matrix(1,-4.66531e-17,-8.16431e-17,0.761903,1331.7,1080.17)"><rect x="0" y="0" width="1280" height="720" style="fill:#bfbfbf;"/><g transform="matrix(17.0972,1.0469e-15,1.83208e-15,22.4401,2177.27,9452.05)"><path d="M-95.551,-403.157L-95.551,-402.144L-101.228,-402.144C-101.236,-402.398 -101.195,-402.642 -101.105,-402.876C-100.961,-403.263 -100.729,-403.644 -100.411,-404.019C-100.093,-404.394 -99.633,-404.827 -99.031,-405.32C-98.098,-406.085 -97.467,-406.692 -97.139,-407.139C-96.81,-407.586 -96.646,-408.009 -96.646,-408.407C-96.646,-408.825 -96.796,-409.178 -97.095,-409.465C-97.393,-409.752 -97.783,-409.896 -98.264,-409.896C-98.771,-409.896 -99.178,-409.743 -99.482,-409.439C-99.787,-409.134 -99.941,-408.712 -99.945,-408.173L-101.029,-408.284C-100.955,-409.093 -100.676,-409.709 -100.191,-410.133C-99.707,-410.557 -99.057,-410.769 -98.24,-410.769C-97.416,-410.769 -96.764,-410.54 -96.283,-410.083C-95.803,-409.626 -95.562,-409.06 -95.562,-408.384C-95.562,-408.04 -95.633,-407.702 -95.773,-407.37C-95.914,-407.038 -96.147,-406.689 -96.474,-406.321C-96.8,-405.954 -97.342,-405.45 -98.1,-404.81C-98.732,-404.278 -99.139,-403.918 -99.318,-403.729C-99.498,-403.539 -99.646,-403.349 -99.764,-403.157L-95.551,-403.157Z" style="fill:#000;fill-rule:nonzero;"/><path d="M-90.447,-402.144L-91.502,-402.144L-91.502,-408.864C-91.756,-408.622 -92.089,-408.38 -92.501,-408.138C-92.913,-407.896 -93.283,-407.714 -93.611,-407.593L-93.611,-408.612C-93.021,-408.89 -92.506,-409.226 -92.064,-409.62C-91.623,-410.015 -91.31,-410.398 -91.127,-410.769L-90.447,-410.769L-90.447,-402.144Z" style="fill:#000;fill-rule:nonzero;"/><path d="M-87.16,-407.165L-87.16,-408.366L-85.959,-408.366L-85.959,-407.165L-87.16,-407.165ZM-87.16,-402.144L-87.16,-403.345L-85.959,-403.345L-85.959,-402.144L-87.16,-402.144Z" style="fill:#000;fill-rule:nonzero;"/><path d="M-84.254,-404.13L-83.24,-404.224C-83.154,-403.747 -82.99,-403.402 -82.748,-403.187C-82.506,-402.972 -82.195,-402.864 -81.816,-402.864C-81.492,-402.864 -81.208,-402.939 -80.964,-403.087C-80.72,-403.236 -80.519,-403.434 -80.363,-403.682C-80.207,-403.93 -80.076,-404.265 -79.971,-404.687C-79.865,-405.109 -79.812,-405.538 -79.812,-405.976C-79.812,-406.023 -79.814,-406.093 -79.818,-406.187C-80.029,-405.851 -80.317,-405.578 -80.683,-405.369C-81.048,-405.16 -81.443,-405.056 -81.869,-405.056C-82.58,-405.056 -83.182,-405.314 -83.674,-405.829C-84.166,-406.345 -84.412,-407.025 -84.412,-407.868C-84.412,-408.739 -84.155,-409.441 -83.642,-409.972C-83.128,-410.503 -82.484,-410.769 -81.711,-410.769C-81.152,-410.769 -80.642,-410.618 -80.179,-410.318C-79.716,-410.017 -79.364,-409.588 -79.124,-409.031C-78.884,-408.475 -78.764,-407.669 -78.764,-406.614C-78.764,-405.517 -78.883,-404.643 -79.121,-403.992C-79.359,-403.342 -79.714,-402.847 -80.184,-402.507C-80.655,-402.167 -81.207,-401.997 -81.84,-401.997C-82.512,-401.997 -83.06,-402.184 -83.486,-402.557C-83.912,-402.93 -84.168,-403.454 -84.254,-404.13ZM-79.935,-407.921C-79.935,-408.527 -80.097,-409.007 -80.419,-409.362C-80.741,-409.718 -81.129,-409.896 -81.582,-409.896C-82.051,-409.896 -82.459,-409.704 -82.807,-409.321C-83.154,-408.939 -83.328,-408.443 -83.328,-407.833C-83.328,-407.286 -83.163,-406.842 -82.833,-406.5C-82.503,-406.158 -82.096,-405.987 -81.611,-405.987C-81.123,-405.987 -80.722,-406.158 -80.407,-406.5C-80.093,-406.842 -79.935,-407.316 -79.935,-407.921Z" style="fill:#000;fill-rule:nonzero;"/></g></g></g></svg>