<?xml version="1.0" standalone="no"?><!DOCTYPE svg PUBLIC "-//W3C//DTD SVG 1.1//EN" "http://www.w3.org/Graphics/SVG/1.1/DTD/svg11.dtd"><svg width="100%" height="100%" viewBox="0 0 1280 855" version="1.1" xmlns="http://www.w3.org/2000/svg" xmlns:xlink="http://www.w3.org/1999/xlink" xml:space="preserve" style="fill-rule:evenodd;clip-rule:evenodd;stroke-linejoin:round;stroke-miterlimit:1.41421;"><g transform="matrix(1,0,0,1,-0,-837)"><g id="Image 3x2 Classic Film" transform="matrix(1,-4.53562e-17,-4.53562e-17,1.18518,3.26564e-14,837.777)"><rect x="0" y="0" width="1280" height="720" style="fill:#bfbfbf;"/><g transform="matrix(17.0972,6.54298e-16,6.54298e-16,14.4258,2177.27,6204.9)"><path d="M-97.751,-404.411L-96.696,-404.552C-96.575,-403.954 -96.369,-403.524 -96.078,-403.26C-95.787,-402.996 -95.433,-402.864 -95.015,-402.864C-94.518,-402.864 -94.1,-403.036 -93.758,-403.38C-93.416,-403.724 -93.245,-404.15 -93.245,-404.657C-93.245,-405.142 -93.403,-405.541 -93.72,-405.856C-94.036,-406.17 -94.438,-406.327 -94.927,-406.327C-95.126,-406.327 -95.374,-406.288 -95.671,-406.21L-95.554,-407.136C-95.483,-407.128 -95.427,-407.124 -95.384,-407.124C-94.934,-407.124 -94.53,-407.241 -94.171,-407.476C-93.811,-407.71 -93.632,-408.071 -93.632,-408.56C-93.632,-408.946 -93.763,-409.267 -94.024,-409.521C-94.286,-409.775 -94.624,-409.902 -95.038,-409.902C-95.448,-409.902 -95.79,-409.773 -96.063,-409.515C-96.337,-409.257 -96.513,-408.87 -96.591,-408.355L-97.645,-408.542C-97.517,-409.249 -97.224,-409.797 -96.767,-410.186C-96.309,-410.574 -95.741,-410.769 -95.061,-410.769C-94.593,-410.769 -94.161,-410.668 -93.767,-410.467C-93.372,-410.266 -93.07,-409.991 -92.861,-409.644C-92.652,-409.296 -92.548,-408.927 -92.548,-408.536C-92.548,-408.165 -92.647,-407.827 -92.847,-407.523C-93.046,-407.218 -93.341,-406.976 -93.731,-406.796C-93.224,-406.679 -92.829,-406.436 -92.548,-406.067C-92.267,-405.697 -92.126,-405.236 -92.126,-404.681C-92.126,-403.931 -92.399,-403.295 -92.946,-402.774C-93.493,-402.252 -94.184,-401.991 -95.02,-401.991C-95.774,-401.991 -96.4,-402.216 -96.898,-402.665C-97.396,-403.114 -97.681,-403.696 -97.751,-404.411Z" style="fill:#000;fill-rule:nonzero;"/><path d="M-90.497,-407.165L-90.497,-408.366L-89.296,-408.366L-89.296,-407.165L-90.497,-407.165ZM-90.497,-402.144L-90.497,-403.345L-89.296,-403.345L-89.296,-402.144L-90.497,-402.144Z" style="fill:#000;fill-rule:nonzero;"/><path d="M-82.206,-403.157L-82.206,-402.144L-87.884,-402.144C-87.892,-402.398 -87.85,-402.642 -87.761,-402.876C-87.616,-403.263 -87.385,-403.644 -87.066,-404.019C-86.748,-404.394 -86.288,-404.827 -85.686,-405.32C-84.753,-406.085 -84.122,-406.692 -83.794,-407.139C-83.466,-407.586 -83.302,-408.009 -83.302,-408.407C-83.302,-408.825 -83.451,-409.178 -83.75,-409.465C-84.049,-409.752 -84.438,-409.896 -84.919,-409.896C-85.427,-409.896 -85.833,-409.743 -86.138,-409.439C-86.442,-409.134 -86.597,-408.712 -86.6,-408.173L-87.684,-408.284C-87.61,-409.093 -87.331,-409.709 -86.847,-410.133C-86.362,-410.557 -85.712,-410.769 -84.895,-410.769C-84.071,-410.769 -83.419,-410.54 -82.938,-410.083C-82.458,-409.626 -82.218,-409.06 -82.218,-408.384C-82.218,-408.04 -82.288,-407.702 -82.429,-407.37C-82.569,-407.038 -82.803,-406.689 -83.129,-406.321C-83.455,-405.954 -83.997,-405.45 -84.755,-404.81C-85.388,-404.278 -85.794,-403.918 -85.974,-403.729C-86.153,-403.539 -86.302,-403.349 -86.419,-403.157L-82.206,-403.157Z" style="fill:#000;fill-rule:nonzero;"/></g></g></g></svg>