<?xml version="1.0" standalone="no"?><!DOCTYPE svg PUBLIC "-//W3C//DTD SVG 1.1//EN" "http://www.w3.org/Graphics/SVG/1.1/DTD/svg11.dtd"><svg width="100%" height="100%" viewBox="0 0 1281 960" version="1.1" xmlns="http://www.w3.org/2000/svg" xmlns:xlink="http://www.w3.org/1999/xlink" xml:space="preserve" style="fill-rule:evenodd;clip-rule:evenodd;stroke-linejoin:round;stroke-miterlimit:1.41421;"><rect id="Image 1x1 Square" x="0.169" y="0" width="1280" height="960" style="fill:#bfbfbf;"/><path d="M574.001,531.742l-18.032,0l0,-114.905c-4.341,4.141 -10.035,8.282 -17.081,12.422c-7.046,4.141 -13.374,7.247 -18.984,9.317l0,-17.431c10.085,-4.742 18.901,-10.485 26.448,-17.231c7.546,-6.745 12.889,-13.29 16.028,-19.635l11.621,0l0,147.463Z" style="fill:#000;fill-rule:nonzero;"/><path d="M630.201,445.889l0,-20.536l20.537,0l0,20.536l-20.537,0ZM630.201,531.742l0,-20.536l20.537,0l0,20.536l-20.537,0Z" style="fill:#000;fill-rule:nonzero;"/><path d="M745.106,531.742l-18.032,0l0,-114.905c-4.341,4.141 -10.035,8.282 -17.08,12.422c-7.046,4.141 -13.374,7.247 -18.984,9.317l0,-17.431c10.084,-4.742 18.9,-10.485 26.447,-17.231c7.547,-6.745 12.889,-13.29 16.028,-19.635l11.621,0l0,147.463Z" style="fill:#000;fill-rule:nonzero;"/></svg>