<svg id="Layer_1" data-name="Layer 1" xmlns="http://www.w3.org/2000/svg" viewBox="0 0 231 99"><title>Artboard 1</title><path d="M47.76,25.94c-.37-.17-.65-.43-.23,0-.41-.43.13.23-.18-.32-.07-.32-.09-.37-.05-.16s0,.15,0-.18c-.27.4.27-.3-.19.29l-5-1.32q7.95,21.18,17.7,41.63A3,3,0,0,0,63.91,67,3.07,3.07,0,0,0,65,62.86q-9.4-19.72-17.09-40.2c-.7-1.84-3.5-3.29-5-1.32A6.45,6.45,0,0,0,41.49,27a6.21,6.21,0,0,0,3.24,4.17A3.1,3.1,0,0,0,48.84,30a3,3,0,0,0-1.08-4.1Z"/><path d="M4.9,24.38A8.07,8.07,0,0,0,.32,32.16c.16,2.08,2.49,4,4.51,2.59A217.87,217.87,0,0,1,34,17.34c9.88-4.77,20.84-9.2,32-9.26C74.86,8,84.35,11.5,89.15,19.15c5.48,8.74,2.18,19.64-2.43,28.14a99.81,99.81,0,0,1-10,14.92q-2.82,3.5-5.91,6.76c-1,1.12-2.13,2.21-3.22,3.29-.52.51-1,1-1.58,1.51l-.81.75-.48.44c-.46.4-.43.4.09,0h1.59l-.31-.08,1.33.77-.12-.16.88,2.12v-.19l-.41,1.51-.24.29L66.18,80l.15,0-2.92-.77.11.12c2.65,2.83,6.88-1.42,4.24-4.24a3.23,3.23,0,0,0-5.15.74,3.33,3.33,0,0,0,2.17,4.93c2.09.49,3.57-1,5-2.29q1.77-1.63,3.46-3.35a119.38,119.38,0,0,0,12-14.32c6.9-9.6,14-21.62,12.65-33.93a25.31,25.31,0,0,0-7.18-15.29A32.14,32.14,0,0,0,76.81,3.5C64.37-.11,51.1,3.6,39.51,8.35,26.1,13.86,13.69,21.34,1.8,29.57l4.52,2.59a2.27,2.27,0,0,1,1.61-2.6c1.48-.66,1.83-2.82,1.08-4.1A3.08,3.08,0,0,0,4.9,24.38Z"/><path d="M100.51,18c1.42-4-1.82-8.09-5.64-9.07-4.14-1.05-8.07,1.45-10.76,4.37A50.94,50.94,0,0,0,72.56,34.79c-1.88,7.33-1.52,16.05,5,21,5.65,4.23,14,3.26,19.72-.33C104.87,50.68,108.42,42,111.52,34l-5.89-.8a26.75,26.75,0,0,0,6,14.35,3,3,0,0,0,4.24,0,21.91,21.91,0,0,0,6.44-17l-5.59,1.52c3.73,7.84,7.79,16.2,8.61,24.86.68,7.2-.65,14.92-5.7,20.38l5,1.33a62.24,62.24,0,0,1,2.18-42.36,61.28,61.28,0,0,1,5.87-10.64l-5.49-2.31c-1.37,7,6,11.44,12.21,10.25,6.95-1.33,10-9.15,12-15l-5.48.71a10.36,10.36,0,0,0,19.28-7.14l-4.41,3.39c6.72,3.85,13.32-1,18.79-4.76a22.57,22.57,0,0,1,8.16-3.92,18.86,18.86,0,0,1,8.48.22,17.65,17.65,0,0,1,8.31,4.71l2.92-5c-22.55-3.58-44.61,4.8-63.3,16.92a317.16,317.16,0,0,0-26.63,19.94A287.25,287.25,0,0,0,94.19,64.24C86,72.5,78.57,81.7,73.18,92.06A3,3,0,0,0,74,95.93a3.06,3.06,0,0,0,3.94-.24c16.2-12.84,33.59-24.41,52.49-32.92,19.13-8.61,40-13.75,61-13.42a107.74,107.74,0,0,1,34.8,6.19,3,3,0,0,0,1.6-5.78c-20.92-7.5-43.78-8-65.43-3.66-21,4.2-40.93,13.15-59.12,24.36a306.24,306.24,0,0,0-29.6,21l4.71,3.63c9.31-17.87,24.45-31.61,39.83-44.24,16.17-13.26,33-27.06,53-34.18,11.05-3.95,23-5.93,34.72-4.08a3.11,3.11,0,0,0,3.39-1.38,3.06,3.06,0,0,0-.47-3.63,24.41,24.41,0,0,0-18.3-7,24,24,0,0,0-9.89,2.59c-3.06,1.57-5.74,3.8-8.66,5.6a16.21,16.21,0,0,1-4.42,2.09,4.42,4.42,0,0,1-3.68-.43,3,3,0,0,0-4.41,3.39,4.72,4.72,0,0,1-3,4.94,4.57,4.57,0,0,1-2.87-.14,4.42,4.42,0,0,1-2.47-2.29c-1.27-2.42-4.7-1.59-5.48.72a34.4,34.4,0,0,1-2.73,6.49A11.47,11.47,0,0,1,141.07,26a6.6,6.6,0,0,1-1.13,1c-.2.14-.4.26-.6.38,0,0-.92.41-.39.22-.23.08-.46.13-.69.2s-.75.12-.21.06a7.92,7.92,0,0,1-1.46,0c.43,0,0,0-.22,0l-.72-.17s-.74-.25-.46-.14-.37-.18-.43-.21c-.25-.14-.5-.28-.73-.44s-.28-.24-.05,0c-.21-.18-.39-.38-.58-.57-.38-.38,0,.14-.09-.13a6.12,6.12,0,0,1-.31-.56c.17.39.06.11,0-.14s0-.17,0,.15V25c-.07.34-.06.33,0,0a3,3,0,0,0-5.49-2.31,67.82,67.82,0,0,0-8.65,57.61,3,3,0,0,0,5,1.32c10.17-11,8.62-27.1,3.56-40.06-1.65-4.23-3.59-8.35-5.54-12.45-1.27-2.66-5.81-1.4-5.59,1.51a16.08,16.08,0,0,1-4.68,12.75h4.24a19.55,19.55,0,0,1-4.25-10.11,3,3,0,0,0-5.89-.79C103.57,38,101.25,43.8,97,48.06c-3.53,3.5-8.79,5.39-13.42,4A7.83,7.83,0,0,1,78.68,48a14.27,14.27,0,0,1-1-7.9c.58-6,3.44-12.24,6.73-17.34,1.71-2.65,3.74-5.8,6.51-7.44a4.68,4.68,0,0,1,1.71-.67,1.82,1.82,0,0,1,1.07.14,2.08,2.08,0,0,1,1.08.9c.39.67,0-.3.15.43-.12-.56,0-.22-.16.24a3,3,0,0,0,5.78,1.6Z"/></svg>