<svg xmlns="http://www.w3.org/2000/svg" viewBox="0 0 65.77 65.42"><title>Brandmarks</title><g id="Medium"><g id="Medium_Black" data-name="Medium Black"><g id="Monogram"><path id="Shape" d="M15.89,22a1.7,1.7,0,0,0-.55-1.42l-4.07-4.9v-.73H23.9l9.76,21.41,8.58-21.41h12v.73L50.8,19a1,1,0,0,0-.38,1v24.5a1,1,0,0,0,.38,1l3.4,3.34v.73H37.12v-.73l3.52-3.42c.34-.34.34-.45.34-1V24.57L31.2,49.42H29.88L18.49,24.57V41.22a2.34,2.34,0,0,0,.63,1.92l4.58,5.55v.73h-13v-.73l4.58-5.55a2.22,2.22,0,0,0,.59-1.92Z"/></g></g></g></svg>