<svg xmlns="http://www.w3.org/2000/svg" viewBox="0 0 103.69 65.42"><defs><style>.cls-1{fill:#053eff;}</style></defs><title>Brandmarks</title><g id="Behance"><path id="Color-2" data-name="Color" class="cls-1" d="M41.69,29.32c5.64-2.7,8.58-6.78,8.58-13.13C50.27,3.67,40.94.62,30.18.62H.54V63.48H31c11.42,0,22.15-5.48,22.15-18.25,0-7.9-3.74-13.73-11.47-15.91Zm-27.33-18h13c5,0,9.47,1.4,9.47,7.18,0,5.34-3.49,7.49-8.42,7.49h-14ZM29.13,52.8H14.36V35.49H29.41c6.09,0,9.94,2.54,9.94,9s-4.6,8.34-10.22,8.34ZM92.71,10.11H67.23V3.92H92.71v6.19Zm10,31.27c0-13.46-7.88-24.69-22.15-24.69-13.87,0-23.29,10.43-23.29,24.08,0,14.17,8.92,23.89,23.29,23.89,10.87,0,17.91-4.89,21.3-15.3h-11c-1.18,3.88-6.08,5.94-9.87,5.94-7.33,0-11.18-4.29-11.18-11.58h32.83C102.64,43,102.7,42.18,102.7,41.38ZM69.78,35.84c.41-6,4.38-9.72,10.38-9.72,6.27,0,9.43,3.69,10,9.72Z"/></g></svg>