<svg xmlns="http://www.w3.org/2000/svg" viewBox="0 0 63.95 64"><defs><style>.cls-1{fill:#ff4500;}.cls-2{fill:#fff;}</style></defs><title>Brandmarks</title><g id="Reddit"><g id="Color"><circle class="cls-1" cx="31.98" cy="32" r="31.51"/><path class="cls-2" d="M53,32a4.6,4.6,0,0,0-7.79-3.31A22.45,22.45,0,0,0,32.91,24.8L35,15l6.84,1.45a3.28,3.28,0,1,0,.33-1.6l-7.63-1.63a.84.84,0,0,0-1,.63l-2.33,11a22.54,22.54,0,0,0-12.47,3.9,4.59,4.59,0,1,0-5.06,7.5,9.2,9.2,0,0,0-.11,1.39c0,7.07,8.23,12.8,18.38,12.8s18.38-5.73,18.38-12.8a9,9,0,0,0-.11-1.38A4.61,4.61,0,0,0,53,32ZM21.47,35.28a3.29,3.29,0,1,1,3.29,3.28A3.29,3.29,0,0,1,21.47,35.28ZM39.77,44c-2.24,2.24-6.53,2.42-7.79,2.42s-5.56-.18-7.79-2.42a.83.83,0,0,1,0-1.2.85.85,0,0,1,1.2,0c1.41,1.41,4.43,1.91,6.59,1.91s5.18-.5,6.59-1.91a.86.86,0,0,1,1.21,0A.84.84,0,0,1,39.77,44Zm-.57-5.39a3.28,3.28,0,1,1,3.28-3.28A3.29,3.29,0,0,1,39.2,38.56Z"/></g></g></svg>