<svg xmlns="http://www.w3.org/2000/svg" viewBox="0 0 64.94 65.42"><defs><style>.cls-1{fill:#fff;}</style></defs><title>Brandmarks</title><g id="Pinterest"><g id="Color"><circle class="cls-1" cx="32.52" cy="32.42" r="31.93"/><path d="M32.52.49A31.93,31.93,0,0,0,20.88,62.16,30.72,30.72,0,0,1,21,53c.58-2.5,3.74-15.87,3.74-15.87a11.6,11.6,0,0,1-.95-4.73c0-4.44,2.57-7.75,5.78-7.75,2.73,0,4.05,2.05,4.05,4.49,0,2.73-1.74,6.83-2.66,10.64a4.65,4.65,0,0,0,4.73,5.78c5.68,0,10-6,10-14.61,0-7.64-5.49-13-13.35-13-9.09,0-14.42,6.81-14.42,13.85a12.49,12.49,0,0,0,2.36,7.28,1,1,0,0,1,.21.92c-.24,1-.79,3.18-.89,3.63s-.48.71-1.08.42c-4-1.87-6.49-7.68-6.49-12.38,0-10.06,7.3-19.31,21.1-19.31,11.06,0,19.68,7.88,19.68,18.44,0,11-6.94,19.87-16.55,19.87C33.05,50.68,30,49,29,47l-2,7.59A35,35,0,0,1,23,63,32,32,0,1,0,32.52.49Z"/></g></g></svg>