<svg xmlns="http://www.w3.org/2000/svg" viewBox="0 0 49.38 64"><title>Brandmarks</title><g id="_500px" data-name="500px"><path id="Black" d="M8.94,41.44s.34.92.52,1.36A20.25,20.25,0,1,0,28.12,14.66a20.5,20.5,0,0,0-8,1.6,26.31,26.31,0,0,0-7.25,5V4.59h28c1,0,1-1.43,1-1.9s0-1.89-1-1.9H10.59A1.33,1.33,0,0,0,9.25,2.11V25.56c0,.76.95,1.31,1.82,1.5,1.71.36,2.11-.19,2.53-.76l.05-.08a32.49,32.49,0,0,1,2.66-3A16.56,16.56,0,1,1,39.79,46.59,16.77,16.77,0,0,1,28,51.43a16,16,0,0,1-8.35-2.31V34.86a8.66,8.66,0,0,1,2.21-5.53A8.08,8.08,0,0,1,28,26.56,8.51,8.51,0,0,1,34.06,29a8.25,8.25,0,0,1,2.47,5.91A8.43,8.43,0,0,1,28,43.43,14.93,14.93,0,0,1,25.32,43c-1-.29-1.37,1-1.51,1.5-.52,1.7.26,2,.43,2.08a11.53,11.53,0,0,0,3.87.57A12.21,12.21,0,1,0,19.37,26.3a11.36,11.36,0,0,0-3.49,8v.07c0,.36,0,8.91,0,11.72h0a19.13,19.13,0,0,1-3.35-5.76c-.33-.86-1.07-.71-2.07-.4-.44.14-1.78.55-1.48,1.51Zm14.39-3.36a1.66,1.66,0,0,0,.6,1l.08.07a1.67,1.67,0,0,0,1.08.57.83.83,0,0,0,.52-.19c.17-.16,2.08-2.1,2.26-2.29L30,39.36a.85.85,0,0,0,.66.34,1.67,1.67,0,0,0,1.11-.6c.92-.94.46-1.45.23-1.69l-2.16-2.17L32.11,33c.49-.53,0-1.1-.38-1.54-.63-.63-1.25-.8-1.64-.44l-2.24,2.25L25.58,31a.64.64,0,0,0-.44-.17,1.66,1.66,0,0,0-1.06.6c-.7.7-.85,1.18-.49,1.57l2.27,2.26-2.25,2.26A.84.84,0,0,0,23.33,38.08Zm5-30.67A27.5,27.5,0,0,0,18,9.37a.82.82,0,0,0-.53.71,2.8,2.8,0,0,0,.27,1.3c.17.45.64,1.64,1.54,1.3a26,26,0,0,1,9-1.72,24.31,24.31,0,0,1,9.54,1.93A26.36,26.36,0,0,1,45,17.51a.88.88,0,0,0,.57.23c.48,0,.94-.47,1.34-.91.65-.74,1.11-1.35.46-2A26.39,26.39,0,0,0,39.2,9.62,27.93,27.93,0,0,0,28.28,7.41Zm19.54,44.8h0a2.84,2.84,0,0,0-1.13-.79.84.84,0,0,0-.86.21l-.21.21a24.45,24.45,0,0,1-34.62,0,23.44,23.44,0,0,1-5.24-7.78,26.87,26.87,0,0,1-1.6-5.5,1,1,0,0,1,0-.15c-.16-.8-.89-.86-1.95-.69C1.75,37.78.41,38,.54,39v0a27.9,27.9,0,0,0,1.86,6.5,28.19,28.19,0,0,0,15,15,28.06,28.06,0,0,0,30.82-6,2.33,2.33,0,0,0,.23-.23C48.7,53.87,49,53.33,47.82,52.21Z"/></g></svg>