<svg xmlns="http://www.w3.org/2000/svg" viewBox="0 0 63.2 64"><defs><style>.cls-1{fill-rule:evenodd;}</style></defs><title>Brandmarks</title><g id="Dribbble"><path id="Black" class="cls-1" d="M31.6.76A31.24,31.24,0,1,0,62.84,32,31.25,31.25,0,0,0,31.6.76Zm20.63,14.4a26.57,26.57,0,0,1,6,16.6,63,63,0,0,0-18.56-.84c-.21-.44-.38-.92-.58-1.39-.54-1.29-1.15-2.61-1.76-3.87C47.18,21.67,51.66,15.91,52.23,15.16ZM31.6,5.37a26.61,26.61,0,0,1,17.68,6.71c-.47.68-4.5,6.06-14,9.62a143.65,143.65,0,0,0-10-15.62A27.39,27.39,0,0,1,31.6,5.37ZM20.25,7.88a169.18,169.18,0,0,1,9.89,15.41A100.28,100.28,0,0,1,5.48,26.55,26.78,26.78,0,0,1,20.25,7.88ZM4.9,32v-.81a97.88,97.88,0,0,0,27.41-3.79c.78,1.49,1.49,3,2.17,4.54l-1,.3C19.67,36.71,12.35,48.84,11.74,49.85A26.61,26.61,0,0,1,4.9,32ZM31.6,58.7a26.48,26.48,0,0,1-16.37-5.63c.48-1,5.9-11.41,20.94-16.67l.17-.06A109.8,109.8,0,0,1,42,56.56,26.22,26.22,0,0,1,31.6,58.7Zm14.87-4.58a114.68,114.68,0,0,0-5.18-19,38.91,38.91,0,0,1,16.6,1.15A26.42,26.42,0,0,1,46.47,54.12Z"/></g></svg>