<svg xmlns="http://www.w3.org/2000/svg" viewBox="0 0 64 64"><title>Brandmarks</title><g id="Instagram"><g id="Black"><path d="M32,6.25c8.43,0,9.43,0,12.76.18a17.53,17.53,0,0,1,5.87,1.09,9.71,9.71,0,0,1,3.63,2.36,9.86,9.86,0,0,1,2.37,3.64,17.53,17.53,0,0,1,1.08,5.86c.16,3.33.19,4.33.19,12.77s0,9.43-.19,12.76a17.66,17.66,0,0,1-1.08,5.87,9.9,9.9,0,0,1-2.37,3.63,9.59,9.59,0,0,1-3.63,2.36,17.27,17.27,0,0,1-5.87,1.09C41.43,58,40.44,58,32,58s-9.43,0-12.76-.18a17.27,17.27,0,0,1-5.87-1.09,9.59,9.59,0,0,1-3.63-2.36,9.9,9.9,0,0,1-2.37-3.63,17.66,17.66,0,0,1-1.08-5.87c-.16-3.33-.19-4.33-.19-12.76s0-9.44.19-12.77a17.53,17.53,0,0,1,1.08-5.86A9.86,9.86,0,0,1,9.74,9.88a9.71,9.71,0,0,1,3.63-2.36,17.53,17.53,0,0,1,5.87-1.09c3.33-.15,4.33-.18,12.76-.18M32,.56c-8.58,0-9.65,0-13,.19a23.09,23.09,0,0,0-7.67,1.47,15.36,15.36,0,0,0-5.6,3.64,15.67,15.67,0,0,0-3.64,5.59A23.15,23.15,0,0,0,.6,19.12c-.15,3.37-.19,4.45-.19,13s0,9.65.19,13a23.15,23.15,0,0,0,1.47,7.67,15.5,15.5,0,0,0,3.64,5.59,15.52,15.52,0,0,0,5.6,3.65A23.35,23.35,0,0,0,19,63.55c3.37.15,4.44.19,13,.19s9.65,0,13-.19a23.35,23.35,0,0,0,7.67-1.47,16.17,16.17,0,0,0,9.24-9.24,23.15,23.15,0,0,0,1.47-7.67c.15-3.37.19-4.44.19-13s0-9.66-.19-13a23.15,23.15,0,0,0-1.47-7.67,15.67,15.67,0,0,0-3.64-5.59,15.36,15.36,0,0,0-5.6-3.64A23.09,23.09,0,0,0,45,.75C41.65.59,40.58.56,32,.56Z"/><path d="M32,15.93A16.22,16.22,0,1,0,48.22,32.15,16.22,16.22,0,0,0,32,15.93Zm0,26.75A10.53,10.53,0,1,1,42.53,32.15,10.53,10.53,0,0,1,32,42.68Z"/><circle cx="48.86" cy="15.28" r="3.79"/></g></g></svg>