<svg xmlns="http://www.w3.org/2000/svg" viewBox="0 0 64 64"><defs><style>.cls-1{fill:#fff;}</style></defs><title>Brandmarks</title><g id="LinkedIn"><g id="Black"><path d="M63.81,59.64a4,4,0,0,1-4,4H4.24a4,4,0,0,1-4-4V4a4,4,0,0,1,4-4h55.6a4,4,0,0,1,4,4Z"/><rect class="cls-1" x="14.17" y="21.91" width="7.94" height="27.8"/><path class="cls-1" d="M41,21.91c-5.54,0-6.49,2-6.95,4v-4H26.08v27.8H34V33.82c0-2.57,1.4-4,4-4s4,1.37,4,4V49.71h7.94V35.81C49.91,27.87,48.87,21.91,41,21.91Z"/><circle class="cls-1" cx="18.14" cy="15.95" r="3.97"/></g></g></svg>