<svg xmlns="http://www.w3.org/2000/svg" viewBox="0 0 78.72 64"><defs><style>.cls-1{fill:#1da1f2;}</style></defs><title>Brandmarks</title><g id="Twitter"><path id="Color" class="cls-1" d="M25,63.42c29.18,0,45.15-24.18,45.15-45.15,0-.68,0-1.37,0-2.05A32.36,32.36,0,0,0,78,8a31.75,31.75,0,0,1-9.12,2.49,15.87,15.87,0,0,0,7-8.77A31.9,31.9,0,0,1,65.75,5.58a15.88,15.88,0,0,0-27,14.47A45,45,0,0,1,6,3.47a15.86,15.86,0,0,0,4.91,21.18,15.64,15.64,0,0,1-7.2-2v.2A15.88,15.88,0,0,0,16.45,38.43a15.94,15.94,0,0,1-7.17.27,15.9,15.9,0,0,0,14.83,11A31.86,31.86,0,0,1,4.4,56.52,31.94,31.94,0,0,1,.62,56.3,45,45,0,0,0,25,63.41"/></g></svg>