<svg xmlns="http://www.w3.org/2000/svg" viewBox="0 0 63.95 64"><defs><style>.cls-1{fill:#231f20;}</style></defs><title>Brandmarks</title><g id="Spotify"><g id="Black"><path class="cls-1" d="M32,.45A31.52,31.52,0,1,0,63.55,32,31.52,31.52,0,0,0,32,.45ZM46.48,45.91a2,2,0,0,1-2.7.66c-7.4-4.53-16.72-5.55-27.69-3a2,2,0,1,1-.87-3.83c12-2.74,22.3-1.56,30.61,3.51A2,2,0,0,1,46.48,45.91Zm3.86-8.58a2.46,2.46,0,0,1-3.38.81c-8.47-5.21-21.39-6.71-31.41-3.67a2.46,2.46,0,0,1-1.43-4.7C25.57,26.29,39.8,28,49.53,34A2.46,2.46,0,0,1,50.34,37.33Zm.33-8.93c-10.16-6-26.92-6.59-36.61-3.65a2.95,2.95,0,1,1-1.72-5.64C23.48,15.73,42,16.38,53.68,23.33a2.95,2.95,0,0,1-3,5.07Z"/></g></g></svg>