<svg id="Youtube" xmlns="http://www.w3.org/2000/svg" viewBox="0 0 90.52 64"><defs><style>.cls-1{fill:red;}.cls-2{fill:#fff;}</style></defs><title>Brandmarks</title><g id="Color"><path class="cls-1" d="M88.36,10.34a11.3,11.3,0,0,0-8-8C73.38.5,45.24.5,45.24.5S17.09.5,10.08,2.38a11.27,11.27,0,0,0-8,8C.24,17.36.24,32,.24,32s0,14.64,1.88,21.66a11.27,11.27,0,0,0,8,8c7,1.88,35.16,1.88,35.16,1.88s28.14,0,35.16-1.88a11.3,11.3,0,0,0,8-8c1.88-7,1.88-21.66,1.88-21.66S90.24,17.36,88.36,10.34Z"/><polygon class="cls-2" points="36.24 45.5 59.62 32 36.24 18.5 36.24 45.5"/></g></svg>