<svg xmlns="http://www.w3.org/2000/svg" viewBox="0 0 64 64"><defs><style>.cls-1{fill:#ff004f;}.cls-2{fill:#00f7ef;}</style></defs><title>Brandmarks</title><g id="TikTok"><g id="Color"><path class="cls-1" d="M59.52,18.66V28.5c-.53,0-1.17.11-1.8.11A19.64,19.64,0,0,1,45.12,24v21A18.89,18.89,0,0,1,10.2,55.07a18.91,18.91,0,0,0,12.91,5.18,18.54,18.54,0,0,0,15-7.62A19.23,19.23,0,0,0,42,41.2V20.14A18.87,18.87,0,0,0,54.54,24.8a9.84,9.84,0,0,0,1.8-.11V18.34a12.29,12.29,0,0,0,2.75.32Z"/><path class="cls-1" d="M28.82,26v10.9a8.81,8.81,0,0,0-2.32-.31A8.6,8.6,0,0,0,18,45.22a9.18,9.18,0,0,0,.53,3,8.82,8.82,0,0,1-3.6-7,8.61,8.61,0,0,1,8.47-8.68,8.41,8.41,0,0,1,2.33.32v-7h.63A18.88,18.88,0,0,1,28.82,26Z"/><path class="cls-1" d="M46.71,10.83a14.28,14.28,0,0,1-4-6.46h2.54V5.85A16.78,16.78,0,0,0,46.71,10.83Z"/><path d="M56.45,18.45V24.8a10.28,10.28,0,0,1-1.8.1,19.69,19.69,0,0,1-12.6-4.65v21a19.05,19.05,0,0,1-18.83,19A18.93,18.93,0,0,1,10.3,55.07,19.21,19.21,0,0,1,7.45,45,18.93,18.93,0,0,1,25.76,26.07v7a8.94,8.94,0,0,0-2.33-.31A8.6,8.6,0,0,0,15,41.41a8.39,8.39,0,0,0,3.6,7,8.57,8.57,0,0,0,7.94,5.71A8.6,8.6,0,0,0,35,45.44V4.37h7.73a13.77,13.77,0,0,0,4,6.46A14.54,14.54,0,0,0,56.45,18.45Z"/><path class="cls-2" d="M25.76,22.26v3.6A18.93,18.93,0,0,0,7.45,44.8,19.17,19.17,0,0,0,10.3,54.85,19.18,19.18,0,0,1,4.48,41,18.9,18.9,0,0,1,23.32,22.05,16.93,16.93,0,0,1,25.76,22.26Z"/><path class="cls-2" d="M42.69,4.37H35V45.22A8.6,8.6,0,0,1,26.5,53.9a8.33,8.33,0,0,1-7.94-5.71,8.62,8.62,0,0,0,4.87,1.58,8.51,8.51,0,0,0,8.46-8.57V.24H42.16V.46a5,5,0,0,0,.11,1.27A11.61,11.61,0,0,0,42.69,4.37Z"/><path class="cls-2" d="M56.45,14.53h0v3.81a14.48,14.48,0,0,1-9.84-7.51A13.73,13.73,0,0,0,56.45,14.53Z"/></g></g></svg>